<mxfile host="app.diagrams.net" modified="2022-12-03T20:53:02.077Z" agent="5.0 (Windows NT 10.0; Win64; x64) AppleWebKit/537.36 (KHTML, like Gecko) Chrome/107.0.0.0 Safari/537.36" etag="_Z43xIjLVr5lAA5z4pWk" version="20.5.3" type="github">
  <diagram id="2XXeRItCH8uOyoJOFIRZ" name="Page-1">
    <mxGraphModel dx="1730" dy="2012" grid="1" gridSize="10" guides="1" tooltips="1" connect="1" arrows="1" fold="1" page="1" pageScale="1" pageWidth="850" pageHeight="1100" math="0" shadow="0">
      <root>
        <mxCell id="0" />
        <mxCell id="1" parent="0" />
        <mxCell id="UEncbRYaiT28Zr6wl8QN-14" value="" style="group" parent="1" vertex="1" connectable="0">
          <mxGeometry x="100" y="30" width="700" height="350" as="geometry" />
        </mxCell>
        <mxCell id="UEncbRYaiT28Zr6wl8QN-2" value="" style="rounded=0;whiteSpace=wrap;html=1;" parent="UEncbRYaiT28Zr6wl8QN-14" vertex="1">
          <mxGeometry y="50" width="700" height="300" as="geometry" />
        </mxCell>
        <mxCell id="UEncbRYaiT28Zr6wl8QN-3" value="&lt;font style=&quot;font-size: 30px&quot;&gt;Mine Manager&lt;/font&gt;" style="text;html=1;strokeColor=none;fillColor=none;align=center;verticalAlign=middle;whiteSpace=wrap;rounded=0;strokeWidth=2;" parent="UEncbRYaiT28Zr6wl8QN-14" vertex="1">
          <mxGeometry x="20" y="70" width="210" height="60" as="geometry" />
        </mxCell>
        <mxCell id="UEncbRYaiT28Zr6wl8QN-6" value="&lt;font style=&quot;font-size: 20px&quot;&gt;V.0.0.1&lt;/font&gt;" style="text;html=1;strokeColor=none;fillColor=none;align=center;verticalAlign=middle;whiteSpace=wrap;rounded=0;fontSize=30;" parent="UEncbRYaiT28Zr6wl8QN-14" vertex="1">
          <mxGeometry x="10" y="110" width="150" height="30" as="geometry" />
        </mxCell>
        <mxCell id="UEncbRYaiT28Zr6wl8QN-7" value="" style="rounded=0;whiteSpace=wrap;html=1;fontSize=20;strokeColor=default;strokeWidth=2;" parent="UEncbRYaiT28Zr6wl8QN-14" vertex="1">
          <mxGeometry x="280" y="90" width="380" height="220" as="geometry" />
        </mxCell>
        <mxCell id="UEncbRYaiT28Zr6wl8QN-8" value="Choose Server" style="text;html=1;strokeColor=default;fillColor=none;align=center;verticalAlign=middle;whiteSpace=wrap;rounded=0;fontSize=20;" parent="UEncbRYaiT28Zr6wl8QN-14" vertex="1">
          <mxGeometry x="377.5" y="130" width="185" height="50" as="geometry" />
        </mxCell>
        <mxCell id="UEncbRYaiT28Zr6wl8QN-9" value="Create New Server" style="text;html=1;strokeColor=default;fillColor=none;align=center;verticalAlign=middle;whiteSpace=wrap;rounded=0;fontSize=20;" parent="UEncbRYaiT28Zr6wl8QN-14" vertex="1">
          <mxGeometry x="377.5" y="210" width="185" height="50" as="geometry" />
        </mxCell>
        <mxCell id="UEncbRYaiT28Zr6wl8QN-11" value="Potential Login &lt;br&gt;Section?" style="rounded=1;whiteSpace=wrap;html=1;fontSize=20;strokeColor=default;strokeWidth=2;" parent="UEncbRYaiT28Zr6wl8QN-14" vertex="1">
          <mxGeometry x="40" y="177.5" width="220" height="115" as="geometry" />
        </mxCell>
        <mxCell id="UEncbRYaiT28Zr6wl8QN-12" value="StartPage" style="text;html=1;strokeColor=default;fillColor=none;align=center;verticalAlign=middle;whiteSpace=wrap;rounded=0;fontSize=20;" parent="UEncbRYaiT28Zr6wl8QN-14" vertex="1">
          <mxGeometry x="260" width="140" height="40" as="geometry" />
        </mxCell>
        <mxCell id="UEncbRYaiT28Zr6wl8QN-13" value="v1" style="text;html=1;strokeColor=none;fillColor=none;align=center;verticalAlign=middle;whiteSpace=wrap;rounded=0;fontSize=20;" parent="UEncbRYaiT28Zr6wl8QN-14" vertex="1">
          <mxGeometry x="400" y="5" width="60" height="30" as="geometry" />
        </mxCell>
        <mxCell id="QZ7w9EDcwbM6jEZ6R1zy-19" value="" style="group" vertex="1" connectable="0" parent="1">
          <mxGeometry x="1030" y="-40" width="550" height="510" as="geometry" />
        </mxCell>
        <mxCell id="QZ7w9EDcwbM6jEZ6R1zy-4" value="" style="rounded=0;whiteSpace=wrap;html=1;" vertex="1" parent="QZ7w9EDcwbM6jEZ6R1zy-19">
          <mxGeometry y="70" width="550" height="380" as="geometry" />
        </mxCell>
        <mxCell id="QZ7w9EDcwbM6jEZ6R1zy-11" value="StartPage" style="text;html=1;strokeColor=default;fillColor=none;align=center;verticalAlign=middle;whiteSpace=wrap;rounded=0;fontSize=20;" vertex="1" parent="QZ7w9EDcwbM6jEZ6R1zy-19">
          <mxGeometry x="230" width="140" height="45.71428571428571" as="geometry" />
        </mxCell>
        <mxCell id="QZ7w9EDcwbM6jEZ6R1zy-12" value="v2&lt;br&gt;" style="text;html=1;strokeColor=none;fillColor=none;align=center;verticalAlign=middle;whiteSpace=wrap;rounded=0;fontSize=20;" vertex="1" parent="QZ7w9EDcwbM6jEZ6R1zy-19">
          <mxGeometry x="370" y="5.714285714285715" width="60" height="34.285714285714285" as="geometry" />
        </mxCell>
        <mxCell id="QZ7w9EDcwbM6jEZ6R1zy-14" value="" style="group" vertex="1" connectable="0" parent="QZ7w9EDcwbM6jEZ6R1zy-19">
          <mxGeometry y="70" width="220" height="80" as="geometry" />
        </mxCell>
        <mxCell id="QZ7w9EDcwbM6jEZ6R1zy-5" value="&lt;font style=&quot;font-size: 30px&quot;&gt;Mine Manager&lt;/font&gt;" style="text;html=1;strokeColor=none;fillColor=none;align=center;verticalAlign=middle;whiteSpace=wrap;rounded=0;strokeWidth=2;" vertex="1" parent="QZ7w9EDcwbM6jEZ6R1zy-14">
          <mxGeometry x="10" width="210" height="68.57142857142857" as="geometry" />
        </mxCell>
        <mxCell id="QZ7w9EDcwbM6jEZ6R1zy-6" value="&lt;font style=&quot;font-size: 20px&quot;&gt;V.0.0.1&lt;/font&gt;" style="text;html=1;strokeColor=none;fillColor=none;align=center;verticalAlign=middle;whiteSpace=wrap;rounded=0;fontSize=30;" vertex="1" parent="QZ7w9EDcwbM6jEZ6R1zy-14">
          <mxGeometry y="45.71428571428572" width="150" height="34.285714285714285" as="geometry" />
        </mxCell>
        <mxCell id="QZ7w9EDcwbM6jEZ6R1zy-15" value="" style="group" vertex="1" connectable="0" parent="QZ7w9EDcwbM6jEZ6R1zy-19">
          <mxGeometry x="135" y="190" width="380" height="221.43" as="geometry" />
        </mxCell>
        <mxCell id="QZ7w9EDcwbM6jEZ6R1zy-7" value="" style="rounded=0;whiteSpace=wrap;html=1;fontSize=20;strokeColor=default;strokeWidth=2;" vertex="1" parent="QZ7w9EDcwbM6jEZ6R1zy-15">
          <mxGeometry width="380" height="221.42999999999998" as="geometry" />
        </mxCell>
        <mxCell id="QZ7w9EDcwbM6jEZ6R1zy-8" value="Xbox UserName" style="text;html=1;strokeColor=default;fillColor=none;align=center;verticalAlign=middle;whiteSpace=wrap;rounded=0;fontSize=20;" vertex="1" parent="QZ7w9EDcwbM6jEZ6R1zy-15">
          <mxGeometry x="97.5" y="40.25999999999999" width="185" height="50.324999999999996" as="geometry" />
        </mxCell>
        <mxCell id="QZ7w9EDcwbM6jEZ6R1zy-9" value="Xbox password?" style="text;html=1;strokeColor=default;fillColor=none;align=center;verticalAlign=middle;whiteSpace=wrap;rounded=0;fontSize=20;" vertex="1" parent="QZ7w9EDcwbM6jEZ6R1zy-15">
          <mxGeometry x="97.5" y="120.78000000000002" width="185" height="50.324999999999996" as="geometry" />
        </mxCell>
        <mxCell id="QZ7w9EDcwbM6jEZ6R1zy-17" value="&lt;font style=&quot;font-size: 14px;&quot;&gt;Welcome to Mine Manager! Please log into your Xbox account:&lt;/font&gt;" style="text;html=1;strokeColor=none;fillColor=none;align=center;verticalAlign=middle;whiteSpace=wrap;rounded=0;" vertex="1" parent="QZ7w9EDcwbM6jEZ6R1zy-19">
          <mxGeometry x="170" y="150" width="310" height="30" as="geometry" />
        </mxCell>
        <mxCell id="QZ7w9EDcwbM6jEZ6R1zy-18" value="* The&amp;nbsp; specific login sequence might have to be a bit different, depending on how the Xbox profile integration works" style="text;html=1;strokeColor=default;fillColor=default;align=center;verticalAlign=middle;whiteSpace=wrap;rounded=0;fontSize=14;" vertex="1" parent="QZ7w9EDcwbM6jEZ6R1zy-19">
          <mxGeometry x="10" y="470" width="530" height="40" as="geometry" />
        </mxCell>
      </root>
    </mxGraphModel>
  </diagram>
</mxfile>
